<svg xmlns="http://www.w3.org/2000/svg" width="742px" height="214px" viewBox="0 0 742 214">Created with Sketch (http://www.bohemiancoding.com/sketch)<defs><linearGradient id="a" x1="50%" x2="50%" y1="0%" y2="100%"><stop offset="0%" stop-color="#16B0ED" stop-opacity="0.800235524"/><stop offset="100%" stop-color="#0F59B2" stop-opacity="0.83700023"/></linearGradient><linearGradient id="b" x1="50%" x2="50%" y1="0%" y2="100%"><stop offset="0%" stop-color="#7DB643"/><stop offset="100%" stop-color="#367533"/></linearGradient><linearGradient id="c" x1="50%" x2="50%" y1="0%" y2="100%"><stop offset="0%" stop-color="#88C649" stop-opacity="0.8"/><stop offset="100%" stop-color="#439240" stop-opacity="0.84"/></linearGradient></defs><g fill="none" fill-rule="evenodd"><path fill="url(#a)" d="M.027 45.459 45.224-.173v212.171L.027 166.894z" transform="translate(1 1)"/><path fill="url(#b)" d="M129.337 45.89 175.152-.149l-.928 212.146-45.197-45.104z" transform="matrix(-1 0 0 1 305 1)"/><path fill="url(#c)" d="M45.194-.137 162.7 179.173l-32.882 32.881L12.25 33.141z" transform="translate(1 1)"/><path fill="#000" fill-opacity="0.13" d="m46.234 84.032-.063 7.063-36.28-53.563 3.36-3.422z"/><g fill="#444"><path d="M227 154V64.44h4.655q2.325 0 2.685 2.25l.806 13.502q6.086-7.74 14.188-12.466Q257.434 63 267.37 63q7.34 0 12.935 2.34 5.594 2.341 9.264 6.751 3.671 4.411 5.55 10.621T297 96.754V154h-8.504V96.754q0-12.602-5.729-19.757-5.73-7.156-17.544-7.156-8.775 0-16.292 4.545-7.52 4.547-13.427 12.467V154zM350.624 63q7.599 0 14.069 2.605 6.468 2.606 11.219 7.592 4.749 4.986 7.419 12.264T386 102.17q0 1.976-.588 2.696-.59.72-1.851.719h-64.966v1.707q0 10.063 2.353 17.7 2.352 7.635 6.695 12.802 4.342 5.166 10.495 7.771 6.151 2.606 13.752 2.606 6.787 0 11.762-1.483 4.976-1.482 8.37-3.324 3.392-1.841 5.383-3.324 1.99-1.482 2.895-1.482 1.176 0 1.81.898l2.352 2.875q-2.171 2.696-5.745 5.031-3.575 2.337-7.962 3.998-4.389 1.663-9.41 2.65a52.2 52.2 0 0 1-10.088.989q-9.228 0-16.828-3.19-7.6-3.188-13.043-9.298-5.445-6.11-8.415-14.96Q310 118.704 310 107.294q0-9.612 2.76-17.744t7.961-14.016q5.2-5.882 12.758-9.209 7.552-3.323 17.145-3.324m.573 6q-7.044 0-12.623 2.105-5.58 2.106-9.65 6.053t-6.586 9.474Q319.823 92.158 319 99h60q0-7.018-2.013-12.588-2.014-5.568-5.67-9.43-3.66-3.857-8.782-5.92Q357.415 69 351.197 69M435.546 63q9.79 0 17.524 3.28 7.73 3.28 13.04 9.298 5.307 6.02 8.099 14.51T477 109.09t-2.791 18.957q-2.792 8.446-8.099 14.465-5.31 6.018-13.04 9.254Q445.335 155 435.546 155q-9.792 0-17.525-3.234-7.733-3.236-13.085-9.254-5.355-6.02-8.145-14.465Q394 119.6 394 109.09t2.791-19.002 8.145-14.51q5.352-6.018 13.085-9.299 7.733-3.278 17.525-3.279m-.501 86q8.011 0 13.997-2.757 5.985-2.757 9.992-7.909 4.004-5.151 5.986-12.428c1.317-4.85 1.98-10.288 1.98-16.316q0-8.948-1.98-16.27-1.982-7.32-5.986-12.519-4.005-5.195-9.992-7.999-5.987-2.801-13.997-2.802-8.012 0-13.997 2.802-5.987 2.805-9.992 8-4.006 5.197-6.03 12.518T403 109.59q0 9.04 2.025 16.316 2.025 7.277 6.031 12.428 4.005 5.151 9.992 7.91Q427.033 149 435.045 149M530.57 152h-20.05L474 60h18.35q2.415.001 4.072 1.166 1.655 1.166 2.283 2.959l17.722 49.138a93 93 0 0 1 2.551 8.429q1.03 4.126 1.835 8.25.805-4.124 1.835-8.25a78 78 0 0 1 2.64-8.429l18.171-49.138q.626-1.793 2.238-2.96Q547.307 60 549.546 60H567zM572 61h23v92h-23zM610 153V60.443h13.624q4.33 0 5.682 4.06l1.443 6.856a53 53 0 0 1 5.097-4.962 32.7 32.7 0 0 1 5.683-3.879 30.7 30.7 0 0 1 6.496-2.57q3.47-.948 7.624-.948 8.749 0 14.39 4.736 5.638 4.735 8.434 12.585 2.166-4.601 5.413-7.894 3.248-3.292 7.127-5.367a32.9 32.9 0 0 1 8.254-3.068 39.6 39.6 0 0 1 8.796-.992q7.668.001 13.622 2.345 5.954 2.346 10.014 6.857 4.059 4.51 6.18 11.005T740 94.092V153h-22.284V94.092q-.001-8.84-3.878-13.306-3.88-4.465-11.368-4.465-3.428 0-6.358 1.172a15.2 15.2 0 0 0-5.144 3.383q-2.21 2.212-3.474 5.548-1.263 3.337-1.263 7.668V153h-22.37V94.092q0-9.29-3.744-13.532-3.745-4.239-11.051-4.24-4.784 0-8.976 2.391-4.198 2.391-7.804 6.54V153zM572 30h23v19h-23z"/></g></g></svg>